<svg id="Layer_1" data-name="Layer 1" xmlns="http://www.w3.org/2000/svg" viewBox="0 0 397.87 85.1"><path d="M292.85,320.78c-.62-11.83-1.36-26-1.24-36.63h-.37c-2.85,10-6.32,20.52-10.54,32.23l-14.76,41.16h-8.18l-13.51-40.41c-4-12-7.32-22.91-9.68-33h-.24c-.25,10.58-.87,24.8-1.62,37.51L230.48,358H220.19L226,273.2h13.76l14.26,41c3.47,10.44,6.33,19.76,8.43,28.57h.38c2.1-8.56,5.08-17.87,8.8-28.57l14.88-41h13.76L305.5,358H295Z" transform="translate(-211.98 -272.95)"/><path d="M326.62,274.05a39.47,39.47,0,0,0-10.11,11.32,38.33,38.33,0,0,0-4.18,12.4,44.63,44.63,0,0,0,.14,10.46,35.37,35.37,0,0,0,10.19,19.48c1.76,1.74,5.21,4.48,5.59,4.48a58.12,58.12,0,0,0,4.16-6.7,20,20,0,0,0-1.78-1.44,27.13,27.13,0,0,1-6.82-35.25,29.94,29.94,0,0,1,7.53-8.27c.61-.41,1.09-.85,1.07-1-.1-.35-4-6.57-4.16-6.57A15.47,15.47,0,0,0,326.62,274.05Z" transform="translate(-211.98 -272.95)"/><path d="M364,276.24a28.25,28.25,0,0,0-2,3.44,21.82,21.82,0,0,0,1.78,1.44,27.3,27.3,0,0,1,10,16.13,35.6,35.6,0,0,1,0,10.61,27.3,27.3,0,0,1-7.47,13.85,25.77,25.77,0,0,1-3.2,2.82,4.57,4.57,0,0,0-1.19,1c0,.23,4,6.63,4.12,6.63.42,0,3.66-2.55,5.57-4.37a35.14,35.14,0,0,0,.6-49.88c-1.65-1.67-5.67-5-6.08-5A31.32,31.32,0,0,0,364,276.24Z" transform="translate(-211.98 -272.95)"/><path d="M333.16,285.41A22.16,22.16,0,0,0,331.34,318c1.51,1.53,3.39,3.06,3.79,3.06a53.74,53.74,0,0,0,4.23-6.61c0-.11-.27-.36-.61-.57a16,16,0,0,1-3.85-4.37,14.61,14.61,0,0,1-.31-13.35,11.1,11.1,0,0,1,2.82-3.72l2-2-2-3.24a21.64,21.64,0,0,0-2.28-3.22A11.16,11.16,0,0,0,333.16,285.41Z" transform="translate(-211.98 -272.95)"/><path d="M357,287.33,355,290.58l1.53,1.4a15,15,0,0,1,4.12,6.19,10.69,10.69,0,0,1,.57,4.41,9.63,9.63,0,0,1-.63,4.52,14.93,14.93,0,0,1-5.15,7l-.54.42,2.05,3.24a29.44,29.44,0,0,0,2.28,3.31c.52.16,4.23-3.2,5.82-5.3a24.36,24.36,0,0,0,3.72-7.9,22.36,22.36,0,0,0-5.67-20.74c-1.48-1.48-3.41-3.05-3.79-3.05A20.67,20.67,0,0,0,357,287.33Z" transform="translate(-211.98 -272.95)"/><path d="M344.17,293.76a9.36,9.36,0,0,0-4.67,14.12,9.12,9.12,0,0,0,3.2,2.86c.42.13.42.34.42,22.62,0,24.62-.06,23.58,1.24,24.23a12,12,0,0,0,5.65,0c1.33-.69,1.27.54,1.27-24.21l0-22.45,1.17-.73a9.65,9.65,0,0,0,3.35-4.08c.52-1.13.59-1.46.59-3.56s0-2.38-.69-3.74a8.89,8.89,0,0,0-3.25-4A9.51,9.51,0,0,0,344.17,293.76Z" transform="translate(-211.98 -272.95)"/><path d="M453,354c-4,1.94-11.9,3.89-22.07,3.89-23.56,0-41.29-14.6-41.29-41.49,0-25.67,17.73-43.07,43.64-43.07,10.42,0,17,2.19,19.84,3.65l-2.6,8.64a40,40,0,0,0-16.86-3.4C414,282.23,401,294.51,401,316.05c0,20.07,11.78,33,32.11,33,6.57,0,13.27-1.34,17.61-3.41Z" transform="translate(-211.98 -272.95)"/><path d="M466.48,275.08a111.85,111.85,0,0,1,20.7-1.74c11.54,0,19,2.11,24.18,6.82,4.22,3.72,6.57,9.43,6.57,15.87,0,11-6.94,18.36-15.74,21.33v.37c6.44,2.23,10.29,8.19,12.27,16.87,2.73,11.65,4.71,19.71,6.45,22.94H509.75c-1.36-2.36-3.22-9.55-5.58-20-2.48-11.53-6.94-15.87-16.74-16.24H477.26v36.21H466.48Zm10.78,38.07h11c11.53,0,18.85-6.33,18.85-15.88,0-10.78-7.81-15.49-19.22-15.62a44.82,44.82,0,0,0-10.67,1Z" transform="translate(-211.98 -272.95)"/><path d="M232.39,335.37" transform="translate(-211.98 -272.95)"/><path d="M223.41,349.35V358H212v-8.69Z" transform="translate(-211.98 -272.95)"/><path d="M225,330.14l-.23,8.69-11.43-.31.23-8.69Z" transform="translate(-211.98 -272.95)"/><path d="M225.51,311.27l-.22,8.69-11.43-.31.23-8.69,11.42.31Z" transform="translate(-211.98 -272.95)"/><path d="M226,292.39l-.23,8.69-11.43-.3.23-8.69Z" transform="translate(-211.98 -272.95)"/><path d="M227.32,273.25l-.08,8.69-11.43-.11.07-8.69Z" transform="translate(-211.98 -272.95)"/><path d="M227.27,357.76l-5.71-.09,2.21-84.22,5.71.15Z" transform="translate(-211.98 -272.95)"/><path d="M564.11,273.07A42.59,42.59,0,0,0,525,318.48a42.89,42.89,0,0,0,8.44,22.6,56.41,56.41,0,0,0,8.36,8.35,42.6,42.6,0,0,0,51.37-.15,54.92,54.92,0,0,0,8-8,42.55,42.55,0,0,0-37-68.18Zm8.8,9a33.89,33.89,0,1,1-20.58,63.81,34.22,34.22,0,0,1-10.55-8.13,33.89,33.89,0,0,1,31.13-55.68Z" transform="translate(-211.98 -272.95)"/><path d="M566.6,288.25a3,3,0,0,0-1.73,1.37c-.26.49-.3,2.18-.3,9.86v9.24l-4.13-4.11-4.13-4.1h-1a2.59,2.59,0,0,0-2.91,2.93v1l5.46,5.48,5.45,5.45-5.45,5.46-5.46,5.47v1c0,2.1,1.18,3.1,3.4,3,.39,0,1.74-1.24,4.67-4.15l4.12-4.1v9.28c0,8.73,0,9.35.41,10a3.35,3.35,0,0,0,2.33,1.37,3.55,3.55,0,0,0,1.05-.24c.32-.1,3.89-3.5,7.94-7.53l7.31-7.31-6.09-6.1-6.1-6.09,6.1-6.1,6.09-6.1-7.1-7.12C568.76,288.29,568.2,287.84,566.6,288.25ZM572.84,306l-2.71,2.74V297.83l2.71,2.74,2.74,2.72Zm2.64,21.57a55.7,55.7,0,0,1-5.18,5.24,39.81,39.81,0,0,1-.17-5.39V322l2.67,2.67A26.54,26.54,0,0,1,575.48,327.57Z" transform="translate(-211.98 -272.95)"/></svg>