<?xml version="1.0" encoding="utf-8"?>
<!-- Generator: Adobe Illustrator 23.0.1, SVG Export Plug-In . SVG Version: 6.00 Build 0)  -->
<svg version="1.1" xmlns="http://www.w3.org/2000/svg" xmlns:xlink="http://www.w3.org/1999/xlink" x="0px" y="0px"
	 viewBox="0 0 512.68 164.55">
<g id="Layer_1">
</g>
<g id="M">
	<path d="M145.63,39.49h-13.76l-14.88,41.13c-3.72,10.72-6.7,20.06-8.8,28.64h-0.37c-2.11-8.83-4.96-18.17-8.43-28.64L85.12,39.49
		H71.36l0,0l-14.04,0l0,8.69l13.44,0l-0.72,10.55l-12.72,0l0,8.69l12.12,0l-0.7,10.18l-11.43,0l0,8.69l10.83,0l-0.7,10.18l-10.14,0
		l0,8.69l9.54,0l-0.73,10.67h-8.81v8.69h11.43v0h7.07l2.23-36.46c0.74-12.74,1.36-27,1.61-37.6h0.25
		c2.36,10.09,5.7,21.07,9.67,33.06l13.52,40.5h8.18l14.76-41.26c4.21-11.73,7.69-22.33,10.54-32.3h0.37
		c-0.12,10.6,0.62,24.85,1.24,36.71l2.11,37.35h10.54L145.63,39.49z"/>
</g>
<g id="I" class="st0">
	<path d="M171.96,40.54c-3.52,2.47-7.91,7.39-10.1,11.32c-1.97,3.49-3.56,8.22-4.18,12.41c-0.38,2.51-0.29,7.97,0.15,10.46
		c1.34,7.59,4.81,14.25,10.19,19.48c1.76,1.73,5.21,4.48,5.59,4.48c0.21,0,4.25-6.48,4.16-6.69c-0.04-0.08-0.84-0.73-1.78-1.44
		c-4.25-3.2-7.78-8.29-9.35-13.45c-2.22-7.3-1.28-15.46,2.53-21.8c1.84-3.05,4.92-6.44,7.53-8.26c0.61-0.42,1.09-0.86,1.07-0.98
		c-0.1-0.36-4.02-6.57-4.16-6.57C173.53,39.47,172.79,39.95,171.96,40.54"/>
	<path d="M209.3,42.73c-1.11,1.8-2.01,3.33-1.97,3.43c0.04,0.08,0.84,0.73,1.78,1.44c5.02,3.77,8.64,9.58,10.04,16.13
		c0.52,2.47,0.52,8.18,0,10.61c-1.17,5.42-3.68,10.08-7.47,13.85c-1.09,1.11-2.53,2.39-3.2,2.82c-0.65,0.46-1.19,0.92-1.19,1.02
		c0,0.23,3.97,6.63,4.12,6.63c0.42,0,3.66-2.55,5.56-4.37c14.02-13.47,14.29-35.96,0.61-49.88c-1.65-1.67-5.67-4.96-6.09-4.96
		C211.41,39.47,210.43,40.93,209.3,42.73"/>
	<path d="M178.5,51.9c-3.43,2.76-6,6.67-7.28,11.09c-2.2,7.59-0.08,15.94,5.46,21.55c1.51,1.53,3.39,3.05,3.79,3.05
		c0.23,0,4.23-6.25,4.23-6.61c0-0.11-0.27-0.36-0.61-0.57c-0.96-0.57-3.08-2.95-3.85-4.37c-1.19-2.11-1.63-3.75-1.76-6.34
		c-0.13-2.8,0.21-4.46,1.44-7.01c0.71-1.49,1.19-2.11,2.82-3.72l1.97-1.95l-2.03-3.24c-1.13-1.78-2.15-3.22-2.28-3.22
		C180.28,50.56,179.42,51.17,178.5,51.9"/>
	<path d="M202.38,53.82l-2.05,3.24l1.53,1.4c1.9,1.74,3.37,3.95,4.12,6.19c0.5,1.49,0.57,2.03,0.57,4.41
		c0.02,2.51-0.04,2.85-0.63,4.52c-0.98,2.78-2.8,5.25-5.15,6.99L200.22,81l2.05,3.24c1.13,1.78,2.15,3.26,2.28,3.31
		c0.52,0.17,4.23-3.2,5.82-5.29c1.55-2.05,3.14-5.42,3.72-7.91c1.74-7.53-0.4-15.4-5.67-20.73c-1.49-1.49-3.41-3.05-3.79-3.05
		C204.51,50.56,203.48,52.02,202.38,53.82"/>
	<path d="M201.06,65.33c-0.88-1.86-1.82-3.01-3.24-3.95c-2.47-1.63-5.59-2.07-8.31-1.13c-5.82,1.97-8.1,8.93-4.67,14.12
		c0.75,1.13,2.41,2.61,3.2,2.87c0.04,0.01,0.07,0.02,0.1,0.05l0,45.59c0,0.95,0.74,1.73,1.65,1.72l5.4-0.01
		c0.91,0,1.64-0.77,1.64-1.72l0-45.54l0.98-0.61c1.32-0.84,2.49-2.26,3.35-4.08c0.52-1.13,0.59-1.46,0.59-3.56
		C201.75,66.9,201.71,66.69,201.06,65.33z"/>
</g>
<g id="C">
	<path d="M246.48,52.04c-7.84,8.06-12.14,18.76-12.11,30.14c0.03,10.62,3.97,20.94,11.01,28.73c7.97,8.83,18.91,13.7,30.57,13.68
		c7.4-0.01,14.67-2.05,21.01-5.89c6.15-3.72,11.3-9.04,14.87-15.38c0.33-0.58,0.49-1.22,0.48-1.85c0-1.47-0.86-2.88-2.36-3.46
		c-1.66-0.64-3.53,0.16-4.42,1.73c-6.12,10.76-17.46,17.45-29.6,17.47c-18.92,0.03-34.34-15.71-34.37-35.1
		c-0.03-19.38,15.33-35.18,34.25-35.21c8-0.01,14.67,2.19,19.3,6.38c3.77,3.41,5.94,7.99,5.94,12.57c0.01,4.59-2.34,9.8-8.58,11.72
		c-1.5-7.4-7.92-12.97-15.58-12.95l-10.49,0.02c-0.5,0-0.9,0.41-0.9,0.92l0.01,4.93l-9.64,0.02c-1.77,0-3.4,1.23-3.71,3.01
		c-0.41,2.34,1.34,4.37,3.55,4.37l9.82-0.02l0.01,8.39l-9.64,0.02c-1.77,0-3.4,1.23-3.71,3.01c-0.41,2.34,1.34,4.37,3.55,4.37
		l9.82-0.02l0.01,4.93c0,0.51,0.4,0.92,0.9,0.92l10.49-0.02c8.12-0.01,14.82-6.29,15.75-14.36c3.97-0.87,7.38-2.69,10.04-5.37
		c3.56-3.59,5.52-8.53,5.51-13.91c-0.01-6.69-3.06-13.28-8.38-18.09c-4.16-3.77-11.72-8.25-24.08-8.23
		C264.72,39.55,254.31,43.99,246.48,52.04z"/>
</g>
<g id="R">
	<path d="M320.08,44.12c0-1.7,1.24-3.14,2.92-3.4c5.14-0.8,11.59-1.23,17.79-1.23c11.53,0,18.97,2.13,24.18,6.88
		c4.21,3.75,6.57,9.5,6.57,16c0,11.13-6.94,18.51-15.75,21.51v0.38c6.45,2.25,10.29,8.25,12.27,17.01
		c1.87,8.07,3.4,14.43,4.73,18.68c0.69,2.21-0.97,4.45-3.29,4.45h-3.89c-1.46,0-2.75-0.91-3.24-2.28c-1.23-3.47-2.77-9.67-4.6-17.85
		c-2.48-11.63-6.94-16-16.74-16.38h-6.73c-1.9,0-3.44,1.54-3.44,3.44v29.63c0,1.9-1.54,3.44-3.44,3.44h-3.91
		c-1.9,0-3.44-1.54-3.44-3.44L320.08,44.12z M330.87,76.19c0,1.9,1.54,3.44,3.44,3.44h7.6c11.53,0,18.85-6.38,18.85-16
		c0-10.88-7.81-15.63-19.22-15.75c-3.13,0-5.73,0.18-7.68,0.43c-1.71,0.22-2.98,1.68-2.98,3.41L330.87,76.19z"/>
</g>
<g id="O">
	<path d="M450.45,52.67c-8.89-9.28-21.29-14.07-33.99-13.11c-7.22,0.56-14.27,2.98-20.26,7.01c-12.83,8.57-19.99,23.11-18.89,38.41
		c0.58,8.16,3.49,15.96,8.44,22.6c1.63,2.21,6.15,6.73,8.35,8.36c6.64,4.97,14.55,7.9,22.68,8.44c10.35,0.68,20.39-2.31,28.68-8.59
		c2.25-1.69,6.34-5.78,8.03-8.03C466.15,90.99,464.86,67.77,450.45,52.67z M450.06,96.99c-3.44,6.82-8.53,11.92-15.36,15.36
		c-9.35,4.68-20.68,4.68-30.03,0c-4.13-2.08-7.81-4.92-10.55-8.13c-13.43-15.72-10.27-39.06,6.89-50.53
		c7.02-4.71,15.68-6.55,24.24-5.16c9.13,1.48,17.39,6.8,22.61,14.59C454.6,73.18,455.43,86.27,450.06,96.99z"/>
	<path d="M435.94,69.67l-7.1-7.12c-7.74-7.77-8.3-8.22-9.9-7.81c-0.68,0.19-1.39,0.73-1.73,1.37c-0.26,0.49-0.3,2.18-0.3,9.86v9.24
		l-4.13-4.11L408.65,67h-1.03c-1.92,0-2.91,0.98-2.91,2.93v1l5.46,5.48l5.46,5.46l-5.46,5.46l-5.46,5.48v1.01
		c0,2.1,1.18,3.1,3.4,2.97c0.39-0.04,1.73-1.24,4.66-4.15l4.13-4.11v9.28c0,8.73,0.02,9.35,0.41,9.97c0.41,0.68,1.58,1.37,2.33,1.37
		c0.26,0,0.71-0.11,1.05-0.24c0.32-0.11,3.89-3.51,7.94-7.53l7.32-7.32l-6.1-6.1l-6.1-6.1l6.1-6.1L435.94,69.67z M425.14,91.17
		c1.48,1.48,2.67,2.76,2.67,2.89c0,0.24-4.94,5.24-5.18,5.24c-0.11,0-0.17-2.44-0.17-5.39v-5.41L425.14,91.17z M425.18,72.49
		l-2.72,2.74v-5.45v-5.45l2.72,2.74l2.74,2.72L425.18,72.49z"/>
</g>
</svg>
