<svg version="1.1" xmlns="http://www.w3.org/2000/svg" xmlns:xlink="http://www.w3.org/1999/xlink" >
	 <symbol id="micro">
  <g id="M">
    <path d="M145.63,39.49H131.87L117,80.62c-3.72,10.73-6.7,20.06-8.8,28.64h-.38c-2.1-8.83-5-18.17-8.43-28.64L85.12,39.49H57.32v8.69H70.76L70,58.73H57.32v8.69H69.45l-.7,10.18H57.32v8.69H68.15l-.7,10.18H57.32v8.69h9.54l-.73,10.67H57.32v8.69h18.5l2.24-36.47c.74-12.74,1.36-27,1.61-37.59h.25c2.35,10.09,5.7,21.07,9.67,33.05L103.1,124h8.19L126,82.77c4.22-11.74,7.69-22.34,10.54-32.3H137c-.12,10.59.62,24.85,1.24,36.71l2.11,37.35h10.54Z" transform="translate(-57.32 -39.44)"/>
  </g>
  <g id="I">
    <path d="M172,40.54a39.47,39.47,0,0,0-10.11,11.32,38.33,38.33,0,0,0-4.18,12.4,44.63,44.63,0,0,0,.14,10.46A35.37,35.37,0,0,0,168,94.2c1.76,1.74,5.21,4.48,5.59,4.48a58.12,58.12,0,0,0,4.16-6.7A20,20,0,0,0,176,90.54a27.13,27.13,0,0,1-6.82-35.25A29.94,29.94,0,0,1,176.68,47c.61-.41,1.09-.85,1.07-1-.1-.35-4-6.57-4.16-6.57A15.47,15.47,0,0,0,172,40.54" transform="translate(-57.32 -39.44)"/>
    <path d="M209.3,42.73a29.46,29.46,0,0,0-2,3.43,18.91,18.91,0,0,0,1.78,1.45,27.3,27.3,0,0,1,10,16.13,35.6,35.6,0,0,1,0,10.61,27.34,27.34,0,0,1-7.47,13.85,26.64,26.64,0,0,1-3.2,2.82,5.07,5.07,0,0,0-1.19,1c0,.23,4,6.64,4.12,6.64.42,0,3.66-2.56,5.57-4.38a35.12,35.12,0,0,0,.6-49.87c-1.65-1.67-5.67-5-6.08-5a30.07,30.07,0,0,0-2.2,3.26" transform="translate(-57.32 -39.44)"/>
    <path d="M178.5,51.9a22.16,22.16,0,0,0-1.82,32.63c1.51,1.53,3.39,3.06,3.79,3.06A53.74,53.74,0,0,0,184.7,81c0-.11-.27-.36-.61-.57A16.13,16.13,0,0,1,180.24,76a12.76,12.76,0,0,1-1.76-6.34,12.61,12.61,0,0,1,1.45-7A11.1,11.1,0,0,1,182.75,59l2-1.95-2-3.24a21.64,21.64,0,0,0-2.28-3.22,11.16,11.16,0,0,0-1.91,1.34" transform="translate(-57.32 -39.44)"/>
    <path d="M202.38,53.82l-2,3.25,1.52,1.4A15,15,0,0,1,206,64.66a10.53,10.53,0,0,1,.57,4.41,9.63,9.63,0,0,1-.63,4.52,14.93,14.93,0,0,1-5.15,7l-.54.42,2.05,3.24a29.44,29.44,0,0,0,2.28,3.31c.52.16,4.23-3.21,5.82-5.3a24.11,24.11,0,0,0,3.72-7.91,22.35,22.35,0,0,0-5.67-20.73c-1.48-1.48-3.41-3-3.79-3a20.67,20.67,0,0,0-2.25,3.26" transform="translate(-57.32 -39.44)"/>
    <path d="M201.06,65.33a8.88,8.88,0,0,0-3.24-4,9.57,9.57,0,0,0-8.31-1.13,9.37,9.37,0,0,0-4.67,14.13,9.12,9.12,0,0,0,3.2,2.86l.11,0v45.59a1.69,1.69,0,0,0,1.65,1.72h5.4a1.69,1.69,0,0,0,1.64-1.73V77.32l1-.61a9.65,9.65,0,0,0,3.35-4.08c.53-1.13.59-1.47.59-3.56S201.71,66.69,201.06,65.33Z" transform="translate(-57.32 -39.44)"/>
  </g>
  <g id="C">
    <path d="M246.48,52a42.76,42.76,0,0,0-12.11,30.14,43.23,43.23,0,0,0,11,28.73A40.79,40.79,0,0,0,297,118.7a42.19,42.19,0,0,0,14.87-15.38A3.72,3.72,0,0,0,310,98a3.67,3.67,0,0,0-4.42,1.73,34.35,34.35,0,0,1-29.61,17.48c-18.92,0-34.33-15.72-34.37-35.1s15.34-35.18,34.25-35.21c8,0,14.68,2.19,19.31,6.38a17.24,17.24,0,0,1,5.94,12.58,11.8,11.8,0,0,1-8.58,11.71,16,16,0,0,0-15.58-13l-10.49,0a.91.91,0,0,0-.9.92v4.94h-9.64a3.75,3.75,0,0,0-3.71,3,3.67,3.67,0,0,0,3.54,4.37l9.82,0,0,8.39-9.65,0a3.73,3.73,0,0,0-3.71,3,3.67,3.67,0,0,0,3.55,4.37l9.82,0v4.93a.91.91,0,0,0,.9.92l10.49,0a16,16,0,0,0,15.75-14.35,19.93,19.93,0,0,0,10-5.37,19.5,19.5,0,0,0,5.51-13.91,24.67,24.67,0,0,0-8.38-18.09c-4.16-3.77-11.72-8.25-24.08-8.23A40.74,40.74,0,0,0,246.48,52Z" transform="translate(-57.32 -39.44)"/>
  </g>
  <g id="R">
    <path d="M320.08,44.12a3.44,3.44,0,0,1,2.92-3.4,121.52,121.52,0,0,1,17.79-1.23c11.53,0,19,2.12,24.18,6.88,4.21,3.75,6.57,9.5,6.57,16,0,11.13-6.94,18.51-15.75,21.51v.37c6.45,2.25,10.29,8.25,12.28,17,1.87,8.07,3.39,14.43,4.73,18.68a3.43,3.43,0,0,1-3.29,4.45h-3.89a3.44,3.44,0,0,1-3.25-2.29c-1.23-3.47-2.76-9.67-4.59-17.84-2.48-11.63-6.95-16-16.74-16.38h-6.73a3.44,3.44,0,0,0-3.44,3.44V121a3.44,3.44,0,0,1-3.44,3.44h-3.91a3.44,3.44,0,0,1-3.44-3.44Zm10.79,32.07a3.44,3.44,0,0,0,3.44,3.44h7.59c11.54,0,18.85-6.38,18.85-16,0-10.88-7.81-15.63-19.22-15.75a61.75,61.75,0,0,0-7.68.43,3.43,3.43,0,0,0-3,3.41Z" transform="translate(-57.32 -39.44)"/>
  </g>
  <g id="O">
    <path d="M450.45,52.67a42.5,42.5,0,0,0-64.71,54.9,56.82,56.82,0,0,0,8.35,8.35,42.6,42.6,0,0,0,51.37-.15,54.43,54.43,0,0,0,8-8A42.47,42.47,0,0,0,450.45,52.67ZM450.06,97a33.87,33.87,0,1,1-2.2-33.87A33.8,33.8,0,0,1,450.06,97Z" transform="translate(-57.32 -39.44)"/>
    <path d="M435.94,69.67l-7.1-7.12c-7.74-7.77-8.3-8.22-9.9-7.81a3,3,0,0,0-1.73,1.37c-.26.49-.3,2.18-.3,9.86v9.24l-4.13-4.11L408.65,67h-1a2.59,2.59,0,0,0-2.91,2.93v1l5.46,5.48,5.45,5.45-5.45,5.46-5.46,5.47v1c0,2.1,1.18,3.1,3.4,3,.39,0,1.74-1.24,4.67-4.15l4.13-4.1V97.8c0,8.73,0,9.35.4,10a3.37,3.37,0,0,0,2.33,1.37,3.55,3.55,0,0,0,1.05-.24c.32-.1,3.89-3.51,7.94-7.53l7.31-7.31L429.85,88l-6.1-6.1,6.1-6.09Zm-10.8,21.5a25.53,25.53,0,0,1,2.68,2.89,55.7,55.7,0,0,1-5.18,5.24,39.81,39.81,0,0,1-.17-5.39V88.49Zm0-18.68-2.71,2.74V64.32l2.71,2.74,2.74,2.72Z" transform="translate(-57.32 -39.44)"/>
  </g>
  </symbol>
</svg>
